<?xml version="1.0" standalone="no"?>
<!DOCTYPE svg PUBLIC "-//W3C//DTD SVG 20010904//EN"
 "http://www.w3.org/TR/2001/REC-SVG-20010904/DTD/svg10.dtd">
<svg version="1.0" xmlns="http://www.w3.org/2000/svg"
 width="48.000000pt" height="42.000000pt" viewBox="0 0 48.000000 42.000000"
 preserveAspectRatio="xMidYMid meet">

<g transform="translate(0.000000,42.000000) scale(0.100000,-0.100000)"
fill="#000000" stroke="none">
<path d="M140 386 l-55 -23 -37 -109 c-52 -154 -52 -151 35 -199 70 -39 75
-40 172 -42 55 -1 127 -4 160 -7 l60 -6 -63 14 c-36 9 -103 14 -155 13 -90 -2
-94 -1 -164 38 -83 45 -80 26 -29 188 l31 99 60 24 59 24 25 -24 25 -25 -25
-19 c-17 -14 -33 -18 -55 -15 l-32 5 1 -86 c2 -64 5 -82 13 -71 31 42 117 37
150 -8 15 -22 15 -22 12 8 -4 42 38 62 94 45 48 -14 60 -8 18 10 -36 15 -95 7
-120 -15 -15 -14 -22 -14 -41 -5 -13 8 -39 10 -66 6 l-44 -6 3 53 c3 48 5 52
27 49 24 -4 71 32 71 53 0 16 -44 55 -61 54 -8 0 -39 -11 -69 -23z"/>
<path d="M338 379 c-28 -16 -21 -44 18 -74 l36 -27 34 33 c19 18 34 39 34 46
0 20 -37 35 -59 23 -13 -7 -22 -7 -26 0 -8 12 -15 12 -37 -1z m68 -8 c12 10
18 9 32 -5 16 -16 15 -19 -18 -46 l-35 -29 -27 26 c-16 15 -28 32 -28 39 0 17
22 23 43 12 12 -6 23 -5 33 3z"/>
<path d="M112 100 c8 -25 71 -50 123 -49 l50 2 -57 6 c-36 4 -68 15 -88 30
-18 13 -31 18 -28 11z"/>
<path d="M410 94 c0 -7 52 -25 57 -20 2 2 -10 8 -26 14 -17 6 -31 9 -31 6z"/>
</g>
</svg>
